<mxfile host="app.diagrams.net" modified="2022-03-18T07:09:33.974Z" agent="5.0 (Macintosh; Intel Mac OS X 10_15_7) AppleWebKit/537.36 (KHTML, like Gecko) Chrome/99.0.4844.51 Safari/537.36" etag="xp6r9AebOL1yghNmZlMF" version="17.1.3" type="github">
  <diagram id="BRU-C2kcGeTS7Em7pVJV" name="Page-1">
    <mxGraphModel dx="1426" dy="913" grid="1" gridSize="10" guides="1" tooltips="1" connect="1" arrows="1" fold="1" page="1" pageScale="1" pageWidth="827" pageHeight="1169" math="0" shadow="0">
      <root>
        <mxCell id="0" />
        <mxCell id="1" parent="0" />
        <mxCell id="Et2niudzJevYGXXobUG--1" value="VNode的作用&lt;br&gt;" style="rounded=1;whiteSpace=wrap;html=1;" vertex="1" parent="1">
          <mxGeometry x="310" y="110" width="120" height="60" as="geometry" />
        </mxCell>
        <mxCell id="Et2niudzJevYGXXobUG--5" style="edgeStyle=orthogonalEdgeStyle;rounded=0;orthogonalLoop=1;jettySize=auto;html=1;" edge="1" parent="1" source="Et2niudzJevYGXXobUG--2" target="Et2niudzJevYGXXobUG--3">
          <mxGeometry relative="1" as="geometry" />
        </mxCell>
        <mxCell id="Et2niudzJevYGXXobUG--2" value="编译 template模板为Vnode" style="rounded=1;whiteSpace=wrap;html=1;" vertex="1" parent="1">
          <mxGeometry x="380" y="250" width="120" height="60" as="geometry" />
        </mxCell>
        <mxCell id="Et2niudzJevYGXXobUG--9" style="edgeStyle=orthogonalEdgeStyle;rounded=0;orthogonalLoop=1;jettySize=auto;html=1;entryX=0.5;entryY=0;entryDx=0;entryDy=0;" edge="1" parent="1" source="Et2niudzJevYGXXobUG--3" target="Et2niudzJevYGXXobUG--8">
          <mxGeometry relative="1" as="geometry" />
        </mxCell>
        <mxCell id="Et2niudzJevYGXXobUG--3" value="实例化虚拟DOM，并缓存下来" style="rounded=0;whiteSpace=wrap;html=1;" vertex="1" parent="1">
          <mxGeometry x="380" y="360" width="120" height="60" as="geometry" />
        </mxCell>
        <mxCell id="Et2niudzJevYGXXobUG--4" value="数据发生变化" style="rounded=0;whiteSpace=wrap;html=1;" vertex="1" parent="1">
          <mxGeometry x="380" y="610" width="120" height="60" as="geometry" />
        </mxCell>
        <mxCell id="Et2niudzJevYGXXobUG--8" value="&lt;span&gt;数据发生变化&lt;/span&gt;" style="rhombus;whiteSpace=wrap;html=1;" vertex="1" parent="1">
          <mxGeometry x="375" y="470" width="130" height="80" as="geometry" />
        </mxCell>
      </root>
    </mxGraphModel>
  </diagram>
</mxfile>
